<?xml version="1.0" standalone="no"?>
<!DOCTYPE svg PUBLIC "-//W3C//DTD SVG 20010904//EN"
 "http://www.w3.org/TR/2001/REC-SVG-20010904/DTD/svg10.dtd">
<svg version="1.0" xmlns="http://www.w3.org/2000/svg"
 width="1024.000000pt" height="398.000000pt" viewBox="0 0 1024.000000 398.000000"
 preserveAspectRatio="xMidYMid meet">

<g transform="translate(0.000000,398.000000) scale(0.100000,-0.100000)"
fill="#000000" stroke="none">
<path d="M2640 3840 c-141 -27 -292 -119 -399 -245 -19 -22 -70 -74 -112 -115
-112 -108 -130 -167 -76 -244 17 -24 21 -46 23 -116 1 -63 6 -96 21 -124 19
-37 19 -40 3 -75 -75 -156 -41 -376 75 -487 98 -94 241 -123 368 -75 42 16 50
14 43 -14 -9 -35 -47 -250 -56 -315 -10 -69 -48 -212 -61 -224 -5 -6 -9 -18
-9 -27 0 -10 -3 -19 -7 -21 -13 -5 -48 -72 -179 -338 -106 -215 -292 -588
-323 -648 -5 -9 -17 -39 -26 -67 -9 -27 -28 -74 -41 -103 -13 -29 -24 -55 -24
-58 0 -3 -18 -41 -40 -86 -51 -105 -57 -135 -34 -194 15 -39 25 -50 62 -67 55
-24 131 -19 170 10 22 16 27 28 27 63 0 43 0 43 -47 57 -27 7 -49 19 -49 26
-2 22 3 52 10 57 9 7 41 75 41 89 0 6 3 11 8 11 9 0 28 44 38 85 8 34 31 65
49 65 25 0 37 -44 27 -101 -26 -139 110 -166 140 -27 5 24 8 48 8 53 0 6 -3
67 -6 136 l-6 126 49 49 c43 44 90 95 258 282 28 31 84 92 126 137 42 44 91
98 110 120 19 22 42 49 53 60 16 18 33 52 83 165 8 19 19 43 24 52 5 10 9 25
9 33 0 8 5 15 10 15 6 0 10 6 10 14 0 14 67 167 90 208 15 27 12 99 -6 119
-18 20 -29 76 -26 127 2 23 2 23 26 5 14 -10 33 -35 43 -55 10 -21 21 -38 26
-38 4 0 7 -5 7 -11 0 -12 151 -165 225 -229 l40 -34 -61 -7 c-80 -8 -130 -38
-199 -120 -31 -37 -73 -129 -81 -179 -16 -98 -2 -367 31 -570 26 -159 28 -199
15 -215 -6 -7 -75 -35 -153 -61 -157 -52 -231 -83 -263 -111 -21 -19 -124
-158 -124 -169 0 -3 -16 -29 -35 -59 -28 -45 -40 -55 -63 -55 -43 0 -72 -26
-72 -65 0 -18 7 -41 16 -49 14 -15 246 -16 2549 -14 1687 2 2537 6 2544 13 6
6 7 16 3 22 -12 19 -143 50 -294 70 -123 17 -244 18 -1553 18 -781 1 -1426 2
-1432 3 -24 4 -13 19 25 36 44 20 88 57 125 107 38 51 38 138 0 206 -23 42
-131 205 -181 272 -31 42 -72 122 -67 131 2 4 41 13 85 19 87 13 161 36 230
71 111 57 156 46 260 -61 299 -306 291 -299 322 -299 32 0 87 48 143 125 16
22 31 42 35 45 3 3 18 23 35 45 16 22 31 42 35 45 3 3 18 23 35 45 39 53 40
54 80 99 19 22 35 43 35 47 0 5 10 18 23 31 12 13 36 41 52 63 17 22 35 45 40
52 16 20 28 35 59 78 17 22 33 42 36 45 6 5 71 88 163 210 23 30 50 64 60 75
10 11 50 63 90 117 54 74 77 98 94 98 13 0 23 -4 23 -10 0 -8 83 -91 235 -235
23 -22 140 -134 260 -250 421 -406 401 -390 461 -362 19 10 39 29 45 44 7 16
15 37 20 48 4 11 10 34 13 50 10 61 27 130 36 147 6 10 10 25 10 35 0 9 4 30
9 47 29 97 41 146 41 169 0 14 4 28 9 31 5 3 11 20 14 38 3 18 13 65 22 103 9
39 18 84 21 100 3 17 9 39 14 50 10 22 49 198 57 255 2 19 7 42 10 50 9 20 32
134 39 193 4 26 11 50 15 53 5 3 9 22 9 43 0 20 4 41 10 47 5 5 12 36 15 69 4
33 10 69 15 80 5 11 11 34 15 50 14 67 25 123 36 185 6 36 15 73 20 82 5 10 9
29 9 43 0 14 4 33 9 43 5 9 17 40 27 67 38 110 144 217 240 244 52 14 147 14
198 -1 61 -19 128 -90 145 -156 24 -97 -19 -197 -92 -209 -47 -7 -79 1 -114
31 -49 41 -78 43 -113 8 -35 -35 -40 -83 -13 -122 67 -95 198 -124 320 -70 47
21 133 96 133 116 0 8 4 14 8 14 4 0 16 23 26 50 15 40 17 71 14 153 -5 124
-32 188 -105 258 -66 63 -107 86 -199 110 -87 22 -154 20 -254 -8 -188 -52
-336 -227 -389 -458 -46 -198 -69 -302 -91 -420 -4 -22 -17 -85 -29 -140 -11
-55 -25 -120 -30 -145 -5 -25 -17 -79 -26 -120 -16 -72 -23 -106 -46 -207 -5
-27 -17 -73 -24 -103 -43 -166 -85 -347 -85 -363 0 -9 -4 -25 -10 -35 -12 -23
-51 -177 -57 -227 -2 -22 -9 -50 -15 -63 -13 -25 -48 -30 -48 -7 0 8 -4 15
-10 15 -5 0 -10 6 -10 14 0 8 -4 16 -9 18 -5 2 -80 71 -167 155 -88 83 -184
175 -215 205 -152 145 -355 337 -391 371 -29 27 -48 37 -73 37 -50 0 -61 -7
-102 -64 -21 -28 -40 -53 -43 -56 -3 -3 -18 -23 -35 -45 -16 -22 -33 -44 -37
-50 -5 -5 -27 -35 -50 -65 -24 -30 -45 -57 -48 -60 -3 -3 -32 -41 -65 -84 -33
-43 -64 -84 -70 -90 -5 -6 -23 -29 -39 -51 -17 -22 -33 -42 -36 -45 -3 -3 -19
-23 -35 -45 -17 -22 -32 -42 -35 -45 -5 -4 -35 -44 -72 -95 -4 -5 -25 -31 -45
-56 -21 -26 -47 -59 -58 -75 -11 -16 -36 -47 -56 -69 -19 -22 -66 -79 -103
-127 -58 -76 -96 -107 -96 -80 0 7 -20 30 -139 158 -31 34 -75 83 -97 110 -23
27 -54 63 -68 79 -26 30 -35 78 -16 90 6 3 10 17 10 30 0 13 4 26 9 29 5 3 11
20 14 38 3 18 10 53 16 78 13 55 13 303 0 385 -5 33 -12 84 -15 113 -4 29 -10
55 -15 58 -5 3 -9 20 -9 39 0 19 -4 36 -9 39 -4 3 -11 24 -15 46 -3 23 -10 49
-15 58 -5 9 -13 28 -18 42 -6 14 -18 42 -27 63 -9 21 -16 44 -16 52 0 8 -4 15
-10 15 -5 0 -10 6 -10 14 0 20 -43 97 -117 210 -75 113 -243 289 -358 374 -86
64 -322 182 -431 216 -44 13 -118 32 -165 40 -111 21 -134 31 -151 69 -50 107
-67 133 -110 171 -71 62 -200 136 -295 168 -91 32 -239 45 -323 28z m576 -311
c48 -29 74 -77 81 -152 7 -81 -9 -152 -50 -213 -35 -54 -108 -104 -149 -104
-47 0 -45 26 6 80 50 54 76 103 76 146 l0 26 -36 -21 c-36 -22 -64 -27 -64
-13 0 5 20 35 45 66 45 59 59 106 30 106 -9 0 -42 -11 -75 -25 -56 -23 -110
-33 -110 -19 0 22 77 105 113 123 53 26 91 27 133 0z m-641 -60 c53 -13 116
-65 139 -113 23 -49 23 -153 0 -203 -28 -60 -124 -150 -168 -158 l-37 -7 36
-36 c47 -47 69 -122 63 -213 -6 -80 -27 -121 -86 -166 -52 -39 -95 -53 -187
-59 -83 -6 -127 11 -162 65 -31 47 -29 53 15 44 64 -14 302 0 302 18 0 14 -78
30 -178 38 -78 5 -101 4 -133 -10 -46 -21 -49 -17 -49 82 0 61 16 159 26 159
2 0 14 -11 28 -25 30 -30 66 -33 66 -6 0 27 -48 81 -65 74 -27 -10 -16 25 19
60 l33 33 -38 36 c-30 26 -39 42 -39 66 0 37 -1 36 34 18 37 -19 65 -9 88 30
11 19 22 34 24 34 3 0 18 -10 34 -21 18 -14 38 -20 54 -17 18 4 32 -2 47 -18
13 -13 33 -24 47 -24 25 0 82 50 82 72 0 8 14 19 32 26 31 11 31 12 14 31 -35
38 -79 45 -220 33 -331 -28 -322 -29 -305 33 15 52 41 65 133 65 65 1 100 7
181 35 114 39 111 39 170 24z m1186 -984 c22 -41 44 -75 47 -75 4 0 12 -10 18
-23 6 -12 19 -38 29 -57 10 -19 22 -43 27 -52 4 -10 12 -26 17 -35 5 -10 17
-38 26 -63 10 -25 22 -56 28 -70 21 -54 26 -67 37 -110 6 -25 16 -63 22 -85
16 -59 22 -215 9 -228 -6 -6 -11 -30 -11 -53 0 -24 -4 -45 -9 -49 -6 -3 -13
-27 -16 -53 -3 -26 -10 -55 -16 -64 -5 -10 -9 -29 -9 -42 0 -14 -4 -28 -10
-31 -5 -3 -10 -16 -10 -28 0 -22 -25 -108 -41 -139 -5 -10 -9 -31 -9 -47 0
-17 -4 -33 -10 -36 -5 -3 -10 -16 -10 -28 0 -12 -7 -35 -15 -51 -8 -15 -15
-38 -15 -50 0 -12 -4 -26 -9 -31 -13 -15 -20 -80 -11 -95 5 -8 75 -81 156
-162 90 -89 144 -151 138 -157 -5 -5 -40 -18 -79 -31 -162 -51 -269 -117 -296
-182 -7 -18 -18 -36 -23 -40 -16 -11 -134 -9 -141 2 -3 6 3 27 14 48 11 20 30
75 41 122 12 47 25 99 30 115 25 85 42 153 47 183 3 18 9 35 14 38 5 3 9 24 9
47 0 39 26 127 43 143 4 4 7 22 7 40 0 18 5 36 10 39 6 3 10 21 10 38 0 32 30
130 43 144 4 3 7 21 7 39 0 18 4 35 9 38 4 3 11 26 15 52 3 26 10 52 15 58 5
6 11 27 14 46 3 19 15 85 27 145 26 138 16 264 -30 370 -28 63 -42 107 -47
145 -3 19 -13 44 -23 55 -9 11 -25 56 -34 100 -10 44 -33 115 -51 158 -19 42
-32 77 -30 77 3 0 23 -34 46 -75z m-303 -1111 c1 -111 -2 -208 -7 -219 -11
-23 -23 -157 -28 -300 -5 -138 -23 -283 -43 -330 -4 -11 -11 -28 -14 -38 -3
-10 -19 -25 -36 -35 -17 -9 -73 -44 -123 -77 l-92 -60 -145 -3 c-81 -2 -151 1
-159 7 -11 7 -7 18 22 59 21 27 55 66 77 86 35 31 47 36 90 36 28 0 67 -7 87
-15 75 -32 149 -12 216 58 25 27 27 36 27 107 0 44 4 81 8 84 11 7 24 168 37
471 6 159 25 315 37 315 4 0 8 11 8 23 0 27 9 39 24 34 7 -2 12 -73 14 -203z"/>
<path d="M2313 2965 c-39 -28 -26 -95 18 -95 16 0 69 53 69 68 -1 33 -55 49
-87 27z"/>
</g>
</svg>
