<?xml version="1.0" standalone="no"?>
<!DOCTYPE svg PUBLIC "-//W3C//DTD SVG 20010904//EN"
 "http://www.w3.org/TR/2001/REC-SVG-20010904/DTD/svg10.dtd">
<svg version="1.0" xmlns="http://www.w3.org/2000/svg"
 width="567.000000pt" height="526.000000pt" viewBox="0 0 567.000000 526.000000"
 preserveAspectRatio="xMidYMid meet">

<g transform="translate(0.000000,526.000000) scale(0.100000,-0.100000)"
fill="#000000" stroke="none">
<path d="M4420 5155 c-210 -42 -391 -167 -504 -347 -69 -113 -98 -210 -104
-351 -7 -175 28 -301 118 -421 140 -190 397 -262 641 -181 143 48 216 129 205
227 -7 62 -28 101 -73 135 -32 25 -45 28 -107 28 -64 0 -76 -4 -125 -35 -48
-31 -62 -35 -121 -35 -57 0 -72 4 -102 27 -72 55 -121 222 -94 320 40 148 184
279 337 308 286 55 540 -94 625 -366 24 -77 26 -95 21 -202 -6 -154 -32 -246
-112 -407 -61 -122 -191 -333 -238 -382 -11 -13 -30 -23 -42 -23 -36 0 -123
-50 -155 -88 -49 -59 -72 -133 -69 -224 l2 -79 -109 -141 c-60 -78 -161 -208
-224 -288 -137 -175 -385 -493 -472 -607 -35 -45 -115 -149 -178 -232 l-115
-150 -65 6 c-36 3 -83 1 -104 -5 -22 -6 -45 -8 -51 -4 -11 6 -112 92 -149 127
-6 6 -135 119 -287 252 -274 239 -276 241 -282 287 -14 97 -95 200 -182 229
-195 67 -394 -66 -395 -263 l-1 -65 -81 -90 c-123 -137 -158 -176 -218 -245
-30 -36 -125 -141 -210 -234 -85 -93 -171 -188 -190 -210 -19 -23 -62 -70 -95
-106 -87 -92 -257 -279 -350 -385 -43 -49 -133 -148 -200 -220 -446 -478 -415
-440 -415 -508 0 -62 25 -109 70 -132 38 -20 124 -22 150 -3 11 7 82 81 157
164 76 83 188 204 248 270 61 66 153 166 205 224 52 57 145 158 205 225 61 66
130 143 155 170 25 28 146 163 270 300 124 136 252 278 284 314 33 36 96 106
142 154 l82 88 49 -3 c26 -1 73 2 103 6 63 9 48 18 246 -153 60 -51 136 -117
169 -145 33 -28 82 -71 110 -96 28 -25 94 -83 147 -129 93 -81 96 -85 102
-135 13 -99 70 -176 168 -228 66 -34 174 -31 252 7 97 48 165 159 167 274 0
43 7 56 117 198 333 432 456 591 557 718 61 77 144 183 183 235 40 52 116 151
170 220 97 124 98 125 147 133 92 14 135 27 174 52 45 30 93 94 110 147 18 53
18 146 2 194 l-13 41 54 84 c114 176 247 431 296 571 91 258 83 488 -27 713
-119 244 -328 405 -609 470 -78 18 -281 18 -372 0z"/>
</g>
</svg>
